<svg xmlns="http://www.w3.org/2000/svg" xmlns:xlink="http://www.w3.org/1999/xlink" width="2000" zoomAndPan="magnify" viewBox="0 0 1500 1499.999933" height="2000" preserveAspectRatio="xMidYMid meet" version="1.0"><defs><clipPath id="8f184c9e5d"><path d="M 265 73 L 1255 73 L 1255 1437 L 265 1437 Z M 265 73 " clip-rule="nonzero"/></clipPath><clipPath id="726a91195a"><path d="M 447.933594 -21.875 L 1297.402344 127.492188 L 1052.179688 1522.097656 L 202.710938 1372.730469 Z M 447.933594 -21.875 " clip-rule="nonzero"/></clipPath><clipPath id="ea565c73ab"><path d="M 447.933594 -21.875 L 1297.402344 127.492188 L 1052.179688 1522.097656 L 202.710938 1372.730469 Z M 447.933594 -21.875 " clip-rule="nonzero"/></clipPath><clipPath id="29c05f9315"><path d="M 447.933594 -21.875 L 1297.402344 127.492188 L 1052.179688 1522.097656 L 202.710938 1372.730469 Z M 447.933594 -21.875 " clip-rule="nonzero"/></clipPath></defs><g clip-path="url(#8f184c9e5d)"><g clip-path="url(#726a91195a)"><g clip-path="url(#ea565c73ab)"><g clip-path="url(#29c05f9315)"><path fill="#000000" d="M 541.1875 917.472656 C 520.835938 913.894531 526.417969 882.335938 546.738281 885.90625 C 567.0625 889.480469 561.503906 921.046875 541.1875 917.472656 Z M 559.273438 1119.328125 C 579.59375 1122.898438 585.175781 1091.332031 564.824219 1087.753906 C 544.472656 1084.171875 538.945312 1115.75 559.273438 1119.328125 Z M 529.210938 725.496094 C 549.519531 729.066406 555.105469 697.5 534.761719 693.921875 C 514.417969 690.347656 508.851562 721.917969 529.210938 725.496094 Z M 354.0625 1118.226562 C 333.742188 1114.65625 328.160156 1146.222656 348.511719 1149.800781 C 368.863281 1153.378906 374.414062 1121.804688 354.0625 1118.226562 Z M 592.648438 1297.773438 C 572.324219 1294.203125 566.746094 1325.769531 587.097656 1329.347656 C 607.449219 1332.929688 613 1301.355469 592.648438 1297.773438 Z M 796.671875 1262.90625 C 776.351562 1259.332031 770.769531 1290.902344 791.121094 1294.480469 C 811.472656 1298.058594 817.015625 1266.488281 796.671875 1262.914062 Z M 1244.941406 370.914062 C 1235.609375 372.355469 1226.367188 374.234375 1217.210938 376.542969 C 1208.054688 378.855469 1199.027344 381.589844 1190.128906 384.75 C 1181.230469 387.910156 1172.5 391.480469 1163.9375 395.460938 C 1155.375 399.441406 1147.015625 403.816406 1138.863281 408.582031 C 1130.710938 413.347656 1122.800781 418.484375 1115.132812 423.992188 C 1107.464844 429.503906 1100.070312 435.359375 1092.953125 441.566406 C 1085.832031 447.769531 1079.023438 454.292969 1072.515625 461.140625 C 1066.011719 467.984375 1059.84375 475.117188 1054.007812 482.542969 C 1071.554688 484.09375 1088.800781 487.273438 1105.746094 492.082031 C 1122.695312 496.890625 1139.042969 503.242188 1154.789062 511.132812 C 1155.800781 511.558594 1156.734375 512.117188 1157.585938 512.808594 C 1158.4375 513.503906 1159.171875 514.300781 1159.792969 515.207031 C 1160.414062 516.117188 1160.890625 517.089844 1161.226562 518.136719 C 1161.566406 519.183594 1161.746094 520.253906 1161.773438 521.351562 C 1161.800781 522.449219 1161.667969 523.527344 1161.382812 524.589844 C 1161.097656 525.648438 1160.664062 526.644531 1160.089844 527.582031 C 1159.511719 528.515625 1158.816406 529.351562 1158 530.082031 C 1157.183594 530.816406 1156.277344 531.417969 1155.285156 531.890625 C 1149.316406 534.3125 1143.421875 536.890625 1137.589844 539.628906 C 1131.761719 542.367188 1126.011719 545.257812 1120.339844 548.304688 C 1114.664062 551.351562 1109.078125 554.546875 1103.574219 557.890625 C 1098.070312 561.238281 1092.664062 564.726562 1087.347656 568.363281 C 1082.03125 572 1076.816406 575.773438 1071.707031 579.6875 C 1066.59375 583.605469 1061.589844 587.652344 1056.691406 591.835938 C 1051.796875 596.019531 1047.015625 600.332031 1042.351562 604.769531 C 1037.6875 609.210938 1033.144531 613.769531 1028.726562 618.453125 C 1024.304688 623.136719 1020.011719 627.933594 1015.851562 632.847656 C 1011.6875 637.761719 1007.660156 642.78125 1003.765625 647.910156 C 999.871094 653.039062 996.117188 658.269531 992.503906 663.601562 C 988.890625 668.929688 985.421875 674.355469 982.101562 679.871094 C 978.777344 685.386719 975.605469 690.988281 972.582031 696.671875 C 969.5625 702.359375 966.691406 708.121094 963.980469 713.964844 C 961.265625 719.804688 958.710938 725.710938 956.316406 731.6875 C 953.917969 737.664062 951.683594 743.703125 949.609375 749.796875 C 949.671875 749.96875 949.761719 750.152344 949.820312 750.332031 C 951.59375 754.871094 953.230469 759.359375 954.679688 763.933594 C 963.902344 791.261719 970.535156 819.203125 974.574219 847.761719 C 976.234375 858.8125 977.546875 869.902344 978.515625 881.03125 C 979.480469 892.164062 980.101562 903.3125 980.375 914.484375 C 980.648438 925.652344 980.578125 936.820312 980.15625 947.984375 C 979.734375 959.148438 978.964844 970.289062 977.847656 981.40625 C 976.734375 992.523438 975.273438 1003.597656 973.46875 1014.621094 C 971.664062 1025.648438 969.519531 1036.609375 967.03125 1047.5 C 964.542969 1058.394531 961.71875 1069.199219 958.558594 1079.914062 C 955.398438 1090.632812 951.910156 1101.238281 948.089844 1111.738281 L 948.007812 1111.945312 C 943.070312 1125.132812 937.828125 1138.210938 932.285156 1151.171875 C 930.976562 1154.28125 929.65625 1157.457031 928.261719 1160.542969 C 926.164062 1165.355469 923.964844 1170.199219 921.726562 1174.957031 C 916.214844 1187.132812 910.394531 1199.09375 904.257812 1211.023438 L 904.242188 1211.097656 C 898.191406 1222.8125 891.914062 1234.285156 885.1875 1245.660156 L 885.175781 1245.726562 C 864.363281 1281.742188 839.59375 1314.796875 810.875 1344.886719 C 761.734375 1395.375 698.082031 1431.421875 626.738281 1435.988281 C 615.964844 1436.535156 605.191406 1436.554688 594.417969 1436.039062 C 583.640625 1435.523438 572.917969 1434.476562 562.246094 1432.902344 C 551.574219 1431.328125 541.007812 1429.234375 530.542969 1426.613281 C 520.078125 1423.996094 509.765625 1420.867188 499.609375 1417.230469 C 491.644531 1414.554688 483.816406 1411.53125 476.089844 1408.226562 C 459.796875 1401.425781 444.039062 1393.558594 428.8125 1384.621094 C 413.585938 1375.6875 399.03125 1365.765625 385.152344 1354.855469 C 376.136719 1347.769531 367.550781 1340.199219 359.390625 1332.140625 C 351.230469 1324.085938 343.550781 1315.59375 336.351562 1306.667969 C 329.152344 1297.742188 322.480469 1288.441406 316.332031 1278.761719 C 310.183594 1269.082031 304.601562 1259.085938 299.585938 1248.777344 C 296.09375 1241.8125 292.875 1234.535156 290.0625 1227.269531 C 281.96875 1207.21875 275.964844 1186.5625 272.050781 1165.292969 C 258.273438 1090.234375 267.835938 1012.488281 287.703125 939.515625 C 298.109375 899.058594 312.730469 860.183594 331.566406 822.894531 C 331.765625 822.570312 331.875 822.292969 332.085938 821.972656 C 336.300781 813.957031 340.738281 805.996094 345.507812 798.242188 C 362.296875 770.046875 381.707031 743.792969 403.738281 719.476562 C 406.769531 715.996094 409.871094 712.539062 413.089844 709.203125 C 416.636719 705.429688 420.320312 701.710938 424.007812 698 C 435.582031 686.136719 447.730469 674.898438 460.460938 664.28125 C 473.191406 653.667969 486.429688 643.734375 500.183594 634.480469 C 513.933594 625.230469 528.121094 616.707031 542.75 608.914062 C 557.378906 601.117188 572.367188 594.097656 587.714844 587.84375 C 588.007812 586.960938 588.394531 586.121094 588.875 585.324219 C 592.546875 579.238281 595.890625 572.972656 598.902344 566.535156 C 601.917969 560.097656 604.589844 553.519531 606.914062 546.804688 C 609.238281 540.085938 611.203125 533.265625 612.816406 526.339844 C 614.425781 519.414062 615.667969 512.425781 616.542969 505.371094 C 617.417969 498.316406 617.925781 491.234375 618.058594 484.128906 C 618.191406 477.019531 617.953125 469.925781 617.34375 462.84375 C 616.734375 455.761719 615.753906 448.730469 614.40625 441.75 C 613.058594 434.769531 611.351562 427.878906 609.28125 421.078125 C 604.386719 405.238281 598 390.027344 590.125 375.441406 C 582.246094 360.855469 573.023438 347.171875 562.460938 334.394531 C 561.800781 333.523438 561.277344 332.578125 560.890625 331.554688 C 560.503906 330.53125 560.269531 329.476562 560.1875 328.386719 C 560.105469 327.296875 560.175781 326.214844 560.40625 325.148438 C 560.636719 324.078125 561.011719 323.0625 561.535156 322.101562 C 562.058594 321.140625 562.707031 320.277344 563.480469 319.503906 C 564.253906 318.730469 565.121094 318.082031 566.078125 317.558594 C 567.039062 317.035156 568.054688 316.660156 569.125 316.429688 C 570.191406 316.199219 571.273438 316.125 572.363281 316.207031 C 581.480469 317.167969 590.515625 318.613281 599.476562 320.546875 C 608.4375 322.480469 617.269531 324.890625 625.96875 327.777344 C 634.671875 330.660156 643.191406 334.003906 651.535156 337.804688 C 659.875 341.605469 667.988281 345.84375 675.875 350.519531 C 676.460938 345.550781 676.921875 340.570312 677.257812 335.578125 C 677.597656 330.585938 677.8125 325.589844 677.898438 320.585938 C 677.988281 315.585938 677.953125 310.582031 677.792969 305.582031 C 677.628906 300.582031 677.34375 295.585938 676.933594 290.601562 C 676.527344 285.613281 675.992188 280.640625 675.332031 275.683594 C 674.675781 270.722656 673.894531 265.78125 672.988281 260.859375 C 672.085938 255.941406 671.058594 251.046875 669.910156 246.175781 C 668.761719 241.304688 667.492188 236.46875 666.101562 231.660156 C 664.710938 226.855469 663.203125 222.085938 661.574219 217.355469 C 659.949219 212.625 658.203125 207.9375 656.339844 203.292969 C 654.480469 198.648438 652.503906 194.054688 650.414062 189.507812 C 648.320312 184.964844 646.117188 180.472656 643.804688 176.039062 C 641.488281 171.601562 639.066406 167.226562 636.53125 162.910156 C 634 158.597656 631.359375 154.347656 628.613281 150.164062 C 625.867188 145.984375 623.019531 141.871094 620.070312 137.828125 C 617.121094 133.789062 614.070312 129.824219 610.921875 125.933594 C 610.554688 125.453125 610.230469 124.941406 609.945312 124.40625 C 609.660156 123.871094 609.417969 123.316406 609.222656 122.742188 C 609.027344 122.167969 608.875 121.582031 608.773438 120.984375 C 608.671875 120.386719 608.617188 119.785156 608.613281 119.179688 C 608.609375 118.570312 608.652344 117.96875 608.742188 117.367188 C 608.832031 116.769531 608.972656 116.179688 609.160156 115.601562 C 609.34375 115.023438 609.574219 114.464844 609.851562 113.925781 C 610.128906 113.386719 610.445312 112.871094 610.804688 112.382812 C 611.164062 111.890625 611.558594 111.433594 611.988281 111.007812 C 612.421875 110.582031 612.886719 110.195312 613.378906 109.84375 C 613.875 109.492188 614.394531 109.183594 614.9375 108.914062 C 615.484375 108.644531 616.046875 108.421875 616.625 108.246094 C 617.207031 108.066406 617.796875 107.9375 618.398438 107.855469 C 619 107.773438 619.601562 107.738281 620.207031 107.753906 C 620.816406 107.765625 621.417969 107.828125 622.011719 107.941406 C 622.609375 108.050781 623.195312 108.210938 623.765625 108.414062 C 629.507812 110.542969 635.191406 112.824219 640.8125 115.257812 C 646.429688 117.695312 651.980469 120.28125 657.460938 123.019531 C 662.941406 125.753906 668.339844 128.640625 673.664062 131.671875 C 678.988281 134.699219 684.222656 137.875 689.375 141.191406 C 694.523438 144.503906 699.582031 147.957031 704.542969 151.546875 C 709.507812 155.136719 714.367188 158.859375 719.128906 162.714844 C 723.886719 166.570312 728.539062 170.550781 733.085938 174.65625 C 737.628906 178.765625 742.058594 182.992188 746.371094 187.339844 C 750.6875 191.6875 754.878906 196.152344 758.953125 200.726562 C 763.023438 205.300781 766.96875 209.984375 770.785156 214.777344 C 774.601562 219.566406 778.285156 224.457031 781.839844 229.445312 C 785.390625 234.4375 788.804688 239.519531 792.078125 244.695312 C 795.351562 249.871094 798.484375 255.132812 801.476562 260.480469 C 804.464844 265.824219 807.304688 271.25 810 276.75 C 812.695312 282.25 815.238281 287.820312 817.628906 293.460938 C 820.023438 299.097656 822.257812 304.796875 824.339844 310.558594 C 871.984375 231.324219 922.210938 153.714844 975.023438 77.730469 C 975.394531 77.253906 975.800781 76.8125 976.242188 76.402344 C 976.6875 75.996094 977.160156 75.621094 977.660156 75.289062 C 978.164062 74.953125 978.6875 74.660156 979.238281 74.410156 C 979.785156 74.160156 980.351562 73.957031 980.933594 73.796875 C 981.511719 73.636719 982.105469 73.523438 982.703125 73.457031 C 983.304688 73.390625 983.902344 73.375 984.507812 73.402344 C 985.109375 73.433594 985.703125 73.511719 986.292969 73.636719 C 986.886719 73.761719 987.460938 73.933594 988.023438 74.152344 C 988.585938 74.367188 989.128906 74.628906 989.648438 74.933594 C 990.167969 75.238281 990.664062 75.582031 991.128906 75.964844 C 991.59375 76.347656 992.027344 76.765625 992.425781 77.214844 C 992.828125 77.667969 993.1875 78.148438 993.511719 78.65625 C 993.832031 79.167969 994.113281 79.699219 994.351562 80.253906 C 994.589844 80.808594 994.78125 81.378906 994.925781 81.960938 C 995.074219 82.546875 995.171875 83.140625 995.226562 83.742188 C 995.277344 84.34375 995.28125 84.945312 995.238281 85.546875 C 987.074219 178.984375 975.828125 272.070312 961.5 364.808594 C 966.929688 361.902344 972.433594 359.148438 978.011719 356.546875 C 983.589844 353.945312 989.238281 351.496094 994.949219 349.203125 C 1000.664062 346.90625 1006.433594 344.769531 1012.265625 342.792969 C 1018.09375 340.8125 1023.972656 338.996094 1029.902344 337.335938 C 1035.832031 335.679688 1041.800781 334.183594 1047.8125 332.851562 C 1053.824219 331.523438 1059.867188 330.355469 1065.941406 329.355469 C 1072.015625 328.351562 1078.113281 327.519531 1084.234375 326.851562 C 1090.355469 326.183594 1096.488281 325.683594 1102.636719 325.347656 C 1108.78125 325.015625 1114.933594 324.851562 1121.089844 324.855469 C 1127.25 324.859375 1133.398438 325.027344 1139.546875 325.367188 C 1145.695312 325.707031 1151.828125 326.214844 1157.949219 326.890625 C 1164.066406 327.5625 1170.164062 328.40625 1176.238281 329.414062 C 1182.3125 330.421875 1188.351562 331.59375 1194.363281 332.929688 C 1200.371094 334.269531 1206.339844 335.769531 1212.265625 337.433594 C 1218.195312 339.097656 1224.074219 340.921875 1229.898438 342.90625 C 1235.726562 344.890625 1241.496094 347.035156 1247.207031 349.335938 C 1247.765625 349.570312 1248.300781 349.847656 1248.816406 350.164062 C 1249.328125 350.484375 1249.8125 350.84375 1250.269531 351.242188 C 1250.726562 351.636719 1251.148438 352.066406 1251.535156 352.53125 C 1251.921875 352.996094 1252.269531 353.492188 1252.578125 354.011719 C 1252.886719 354.53125 1253.152344 355.074219 1253.375 355.636719 C 1253.59375 356.199219 1253.769531 356.777344 1253.898438 357.367188 C 1254.027344 357.957031 1254.109375 358.554688 1254.144531 359.160156 C 1254.175781 359.761719 1254.160156 360.367188 1254.097656 360.96875 C 1254.035156 361.570312 1253.925781 362.160156 1253.765625 362.746094 C 1253.609375 363.328125 1253.40625 363.894531 1253.15625 364.449219 C 1252.90625 365 1252.617188 365.527344 1252.28125 366.03125 C 1251.949219 366.535156 1251.578125 367.011719 1251.167969 367.457031 C 1250.757812 367.902344 1250.316406 368.308594 1249.839844 368.683594 C 1249.363281 369.058594 1248.863281 369.394531 1248.332031 369.6875 C 1247.804688 369.980469 1247.257812 370.230469 1246.6875 370.4375 C 1246.117188 370.640625 1245.535156 370.800781 1244.941406 370.914062 Z M 697.742188 357.1875 C 697.472656 359.496094 696.5625 361.515625 695.011719 363.25 C 707.167969 372.144531 718.359375 382.121094 728.582031 393.1875 C 738.804688 404.25 747.867188 416.195312 755.777344 429.015625 C 773.234375 397.691406 791.089844 366.601562 809.355469 335.742188 C 809.003906 335.0625 808.722656 334.355469 808.5 333.621094 C 807 328.609375 805.371094 323.640625 803.617188 318.710938 C 801.867188 313.78125 799.988281 308.902344 797.992188 304.066406 C 795.992188 299.230469 793.875 294.449219 791.632812 289.722656 C 789.394531 284.992188 787.039062 280.324219 784.5625 275.714844 C 782.089844 271.105469 779.5 266.5625 776.796875 262.082031 C 774.09375 257.605469 771.28125 253.195312 768.355469 248.859375 C 765.429688 244.519531 762.398438 240.261719 759.257812 236.074219 C 756.121094 231.890625 752.878906 227.789062 749.53125 223.765625 C 746.183594 219.746094 742.738281 215.808594 739.195312 211.960938 C 735.652344 208.113281 732.011719 204.355469 728.28125 200.691406 C 724.546875 197.027344 720.722656 193.457031 716.8125 189.988281 C 712.898438 186.515625 708.898438 183.140625 704.816406 179.871094 C 700.734375 176.601562 696.574219 173.433594 692.332031 170.371094 C 688.089844 167.308594 683.773438 164.355469 679.382812 161.511719 C 674.992188 158.667969 670.53125 155.9375 666.003906 153.316406 C 661.476562 150.695312 656.882812 148.191406 652.230469 145.804688 C 657.078125 153.617188 661.582031 161.621094 665.742188 169.820312 C 669.902344 178.019531 673.703125 186.382812 677.144531 194.910156 C 680.585938 203.4375 683.65625 212.09375 686.355469 220.882812 C 689.054688 229.671875 691.371094 238.5625 693.304688 247.550781 C 695.242188 256.539062 696.789062 265.59375 697.945312 274.714844 C 699.105469 283.835938 699.867188 292.992188 700.238281 302.179688 C 700.613281 311.363281 700.589844 320.550781 700.171875 329.734375 C 699.753906 338.921875 698.945312 348.070312 697.742188 357.1875 Z M 427.019531 726.933594 C 429.300781 748.058594 431.484375 769.214844 433.746094 790.410156 C 440.953125 789.820312 448.199219 789.148438 455.4375 788.511719 C 511.167969 783.539062 566.914062 778.601562 622.6875 773.699219 C 616.863281 717.550781 611.042969 661.390625 605.230469 605.21875 C 597.871094 607.839844 590.640625 610.746094 583.5 613.847656 C 568.6875 620.453125 554.253906 627.800781 540.199219 635.894531 C 526.148438 643.988281 512.546875 652.785156 499.402344 662.285156 C 486.257812 671.785156 473.636719 681.9375 461.542969 692.742188 C 449.445312 703.542969 437.9375 714.941406 427.019531 726.933594 Z M 458.609375 1026.828125 C 464.890625 1086.277344 471.113281 1145.691406 477.28125 1205.070312 C 539.914062 1197.617188 602.503906 1190.214844 665.054688 1182.855469 L 646.589844 1004.554688 Z M 644.289062 982.195312 C 637.855469 920.136719 631.429688 858.082031 625.003906 796.03125 C 561.988281 801.566406 499.003906 807.136719 436.054688 812.746094 C 436.136719 813.574219 436.253906 814.304688 436.320312 815.175781 C 442.941406 878.292969 449.597656 941.394531 456.28125 1004.488281 Z M 687.363281 1180.203125 C 750.496094 1172.714844 813.542969 1165.242188 876.5 1157.785156 C 874.785156 1140.816406 873.164062 1123.804688 871.449219 1106.835938 C 867.226562 1064.332031 863.003906 1021.847656 858.773438 979.378906 L 808.578125 985.335938 L 668.867188 1001.890625 Z M 856.605469 957.03125 C 850.609375 897.03125 844.644531 837.058594 838.703125 777.109375 C 829.03125 778.035156 819.316406 778.859375 809.671875 779.710938 C 755.535156 784.492188 701.425781 789.285156 647.347656 794.089844 C 653.742188 855.917969 660.144531 917.746094 666.550781 979.578125 Z M 858.800781 752.789062 C 880.738281 750.902344 902.625 748.914062 924.585938 746.957031 C 920.4375 736.375 915.679688 726.070312 910.3125 716.046875 C 904.945312 706.027344 899.003906 696.355469 892.492188 687.035156 C 885.980469 677.71875 878.9375 668.816406 871.371094 660.332031 C 863.804688 651.84375 855.765625 643.835938 847.25 636.300781 C 850.351562 667.699219 853.464844 699.128906 856.597656 730.589844 C 857.335938 738.023438 858.148438 745.394531 858.777344 752.796875 Z M 822.96875 618.484375 C 818.308594 615.554688 813.503906 612.816406 808.550781 610.265625 C 751.636719 580.882812 687.117188 580.933594 627.054688 598.132812 C 632.945312 654.953125 638.835938 711.773438 644.71875 768.589844 C 644.820312 769.644531 644.933594 770.691406 645.039062 771.742188 C 708.828125 766.109375 772.644531 760.457031 836.488281 754.789062 C 831.953125 709.34375 827.445312 663.910156 822.96875 618.484375 Z M 373.511719 795.726562 C 386.136719 794.660156 398.710938 793.5 411.378906 792.359375 C 409.929688 778.226562 408.417969 764.070312 406.945312 750.003906 C 398.84375 759.726562 391.300781 769.742188 384.015625 780.023438 C 380.316406 785.191406 376.84375 790.4375 373.511719 795.726562 Z M 293.015625 1023.824219 L 429.992188 1007.59375 L 433.933594 1007.121094 C 427.222656 943 420.496094 878.875 413.75 814.742188 C 395.5625 816.3125 377.347656 817.929688 359.113281 819.589844 C 343.796875 847.804688 330.90625 877.085938 320.445312 907.433594 C 309.984375 937.785156 302.09375 968.789062 296.769531 1000.445312 C 295.375 1008.1875 294.121094 1015.980469 293.015625 1023.824219 Z M 312.867188 1224.578125 C 350.777344 1220.03125 388.664062 1215.539062 426.527344 1211.09375 C 436.039062 1209.953125 445.457031 1208.855469 454.976562 1207.730469 C 448.777344 1148.320312 442.550781 1088.902344 436.292969 1029.484375 L 290.324219 1046.796875 C 288.703125 1060.457031 287.835938 1074.164062 287.722656 1087.921875 C 287.613281 1101.675781 288.253906 1115.398438 289.65625 1129.082031 C 291.054688 1142.765625 293.199219 1156.332031 296.09375 1169.78125 C 298.988281 1183.230469 302.613281 1196.480469 306.964844 1209.53125 C 308.757812 1214.636719 310.757812 1219.667969 312.890625 1224.582031 Z M 473.34375 1381.757812 C 468.972656 1340.074219 464.574219 1298.378906 460.152344 1256.667969 C 459.242188 1247.800781 458.265625 1238.910156 457.34375 1230.046875 C 412.554688 1235.386719 367.796875 1240.703125 323.0625 1245.992188 C 329.597656 1258.203125 336.988281 1269.878906 345.226562 1281.015625 C 353.464844 1292.148438 362.46875 1302.628906 372.234375 1312.449219 C 372.421875 1311.476562 372.703125 1310.53125 373.078125 1309.613281 C 373.453125 1308.695312 373.910156 1307.824219 374.460938 1307 C 375.007812 1306.171875 375.628906 1305.410156 376.328125 1304.707031 C 377.027344 1304.003906 377.789062 1303.378906 378.613281 1302.828125 C 379.433594 1302.273438 380.304688 1301.808594 381.21875 1301.429688 C 382.136719 1301.050781 383.078125 1300.765625 384.050781 1300.574219 C 385.023438 1300.382812 386.003906 1300.289062 386.996094 1300.292969 C 387.984375 1300.292969 388.96875 1300.394531 389.9375 1300.59375 C 407.152344 1303.621094 405.765625 1326.613281 392.628906 1331.492188 C 410.855469 1346.859375 430.539062 1360.058594 451.675781 1371.085938 C 458.753906 1374.835938 465.984375 1378.351562 473.34375 1381.757812 Z M 687.628906 1400.761719 C 681.707031 1343.703125 675.792969 1286.644531 669.890625 1229.589844 L 667.339844 1205.164062 C 604.800781 1212.5625 542.230469 1219.976562 479.625 1227.40625 C 485.449219 1282.1875 491.210938 1336.914062 496.90625 1391.59375 C 554.089844 1413.445312 616.550781 1422.238281 675.996094 1404.566406 C 679.886719 1403.417969 683.757812 1402.128906 687.582031 1400.769531 Z M 881.359375 1206.570312 C 880.417969 1197.773438 879.578125 1188.929688 878.734375 1180.09375 C 854.238281 1183 829.71875 1185.894531 805.171875 1188.777344 C 766.703125 1193.347656 728.210938 1197.910156 689.691406 1202.46875 C 696.21875 1265.542969 702.753906 1328.621094 709.289062 1391.707031 C 758.253906 1368.703125 798.71875 1329.878906 831.011719 1286.835938 C 849.921875 1261.414062 866.703125 1234.660156 881.359375 1206.570312 Z M 956.425781 967.804688 L 881.066406 976.734375 C 886.9375 1036.179688 892.824219 1095.640625 898.726562 1155.113281 C 901.332031 1154.8125 903.878906 1154.453125 906.496094 1154.199219 C 913.898438 1137.539062 920.757812 1120.671875 927.164062 1103.632812 L 927.175781 1103.566406 C 934.21875 1084.894531 940.003906 1065.84375 944.523438 1046.40625 C 950.480469 1020.507812 954.449219 994.304688 956.425781 967.804688 Z M 940.136719 792.503906 C 937.976562 784.601562 935.5 776.65625 932.835938 768.800781 C 908.898438 770.878906 884.945312 772.976562 860.980469 775.101562 C 866.953125 834.902344 872.878906 894.667969 878.765625 954.390625 L 953.496094 945.527344 C 954.882812 945.367188 956.25 945.449219 957.605469 945.777344 C 958.554688 920.003906 957.59375 894.300781 954.726562 868.667969 C 954.320312 869.257812 953.871094 869.8125 953.382812 870.335938 C 952.894531 870.855469 952.371094 871.339844 951.8125 871.785156 C 951.253906 872.230469 950.664062 872.632812 950.046875 872.988281 C 949.425781 873.347656 948.785156 873.65625 948.117188 873.921875 C 947.453125 874.183594 946.773438 874.398438 946.078125 874.558594 C 945.382812 874.722656 944.675781 874.832031 943.964844 874.890625 C 943.25 874.949219 942.539062 874.953125 941.824219 874.90625 C 941.109375 874.859375 940.40625 874.757812 939.707031 874.605469 C 919.355469 871.027344 924.941406 839.46875 945.257812 843.039062 C 947.511719 843.414062 949.601562 844.222656 951.515625 845.472656 C 948.703125 827.605469 944.910156 809.949219 940.136719 792.503906 Z M 928.265625 527.976562 C 927.820312 528.167969 927.359375 528.332031 926.890625 528.464844 C 926.421875 528.597656 925.945312 528.699219 925.464844 528.773438 C 924.984375 528.84375 924.496094 528.886719 924.011719 528.894531 C 923.523438 528.902344 923.039062 528.878906 922.550781 528.828125 C 922.066406 528.773438 921.589844 528.6875 921.117188 528.574219 C 920.640625 528.457031 920.179688 528.3125 919.722656 528.136719 C 919.269531 527.960938 918.828125 527.753906 918.398438 527.523438 C 917.96875 527.289062 917.558594 527.03125 917.164062 526.746094 C 916.769531 526.457031 916.394531 526.148438 916.039062 525.8125 C 915.683594 525.480469 915.355469 525.121094 915.046875 524.746094 C 914.738281 524.367188 914.453125 523.972656 914.195312 523.558594 C 913.9375 523.144531 913.710938 522.714844 913.507812 522.269531 C 913.304688 521.828125 913.132812 521.371094 912.992188 520.90625 C 912.847656 520.441406 912.734375 519.96875 912.652344 519.488281 C 912.570312 519.007812 912.519531 518.523438 912.5 518.035156 C 912.484375 517.546875 912.496094 517.0625 912.539062 516.578125 C 937.296875 387.488281 956.054688 257.457031 968.8125 126.488281 C 895.707031 233.925781 827.707031 344.601562 764.8125 458.523438 C 760.4375 466.449219 748.804688 463.039062 745.503906 456.375 C 743.667969 452.78125 741.730469 449.242188 739.695312 445.753906 C 737.660156 442.269531 735.527344 438.84375 733.300781 435.476562 C 731.074219 432.113281 728.753906 428.808594 726.34375 425.574219 C 723.933594 422.335938 721.429688 419.171875 718.84375 416.074219 C 716.253906 412.980469 713.578125 409.957031 710.820312 407.011719 C 708.0625 404.0625 705.226562 401.195312 702.304688 398.410156 C 699.386719 395.621094 696.394531 392.917969 693.324219 390.296875 C 690.253906 387.675781 687.113281 385.144531 683.902344 382.699219 C 680.6875 380.253906 677.410156 377.902344 674.066406 375.640625 C 670.726562 373.378906 667.320312 371.214844 663.855469 369.144531 C 660.390625 367.074219 656.871094 365.101562 653.296875 363.226562 C 649.722656 361.355469 646.097656 359.582031 642.421875 357.910156 C 638.75 356.242188 635.03125 354.671875 631.269531 353.210938 C 627.507812 351.75 623.707031 350.390625 619.867188 349.144531 C 616.03125 347.894531 612.160156 346.75 608.257812 345.71875 C 604.359375 344.683594 600.429688 343.761719 596.476562 342.949219 C 597.71875 344.832031 599.046875 346.664062 600.246094 348.585938 C 605.375 356.574219 610.054688 364.816406 614.28125 373.316406 C 618.507812 381.816406 622.257812 390.523438 625.53125 399.433594 C 628.808594 408.34375 631.585938 417.402344 633.867188 426.617188 C 636.148438 435.832031 637.921875 445.144531 639.1875 454.550781 C 640.378906 465.015625 640.828125 475.507812 640.539062 486.035156 C 640.25 496.5625 639.21875 507.015625 637.449219 517.398438 C 635.683594 527.777344 633.191406 537.984375 629.984375 548.011719 C 626.773438 558.042969 622.871094 567.796875 618.285156 577.273438 C 625.601562 575.070312 633.058594 573.027344 640.539062 571.367188 C 648.015625 569.519531 655.5625 568.003906 663.175781 566.824219 C 670.785156 565.644531 678.433594 564.804688 686.121094 564.300781 C 693.808594 563.796875 701.5 563.632812 709.203125 563.8125 C 716.902344 563.988281 724.582031 564.507812 732.234375 565.363281 C 739.890625 566.222656 747.492188 567.417969 755.042969 568.949219 C 762.589844 570.476562 770.058594 572.339844 777.441406 574.53125 C 784.828125 576.722656 792.101562 579.234375 799.261719 582.070312 C 806.425781 584.90625 813.449219 588.054688 820.332031 591.511719 C 828.644531 595.796875 836.632812 600.625 844.296875 605.992188 C 852.15625 611.378906 859.632812 617.257812 866.71875 623.628906 C 881.410156 637.140625 894.648438 651.957031 906.433594 668.070312 C 918.21875 684.183594 928.320312 701.292969 936.746094 719.390625 L 936.734375 719.441406 C 941.371094 708.050781 946.5625 696.902344 952.316406 686.003906 C 957.039062 677.136719 962.101562 668.46875 967.507812 660.003906 C 972.914062 651.535156 978.644531 643.296875 984.699219 635.28125 C 990.757812 627.265625 997.117188 619.503906 1003.789062 611.992188 C 1010.457031 604.476562 1017.410156 597.238281 1024.648438 590.273438 C 1031.886719 583.308594 1039.390625 576.640625 1047.15625 570.269531 C 1054.921875 563.894531 1062.925781 557.839844 1071.167969 552.097656 C 1079.410156 546.355469 1087.867188 540.949219 1096.535156 535.875 C 1105.207031 530.796875 1114.0625 526.074219 1123.105469 521.699219 C 1119.230469 520.121094 1115.316406 518.648438 1111.363281 517.273438 C 1107.410156 515.902344 1103.425781 514.636719 1099.40625 513.472656 C 1095.390625 512.308594 1091.34375 511.253906 1087.269531 510.300781 C 1083.195312 509.351562 1079.101562 508.507812 1074.980469 507.769531 C 1070.863281 507.03125 1066.730469 506.402344 1062.578125 505.882812 C 1058.429688 505.363281 1054.265625 504.949219 1050.09375 504.648438 C 1045.921875 504.34375 1041.746094 504.152344 1037.5625 504.066406 C 1033.378906 503.984375 1029.199219 504.007812 1025.015625 504.144531 C 1020.835938 504.28125 1016.660156 504.523438 1012.492188 504.878906 C 1008.324219 505.230469 1004.167969 505.691406 1000.023438 506.261719 C 995.878906 506.835938 991.753906 507.511719 987.644531 508.300781 C 983.535156 509.085938 979.449219 509.980469 975.390625 510.980469 C 971.328125 511.984375 967.292969 513.089844 963.289062 514.300781 C 959.285156 515.511719 955.316406 516.828125 951.382812 518.25 C 947.445312 519.667969 943.550781 521.191406 939.695312 522.8125 C 935.839844 524.4375 932.03125 526.160156 928.265625 527.984375 Z M 1201.011719 357.839844 C 1195.960938 356.480469 1190.878906 355.246094 1185.765625 354.140625 C 1180.652344 353.035156 1175.515625 352.058594 1170.351562 351.214844 C 1165.1875 350.367188 1160.007812 349.648438 1154.808594 349.0625 C 1149.609375 348.476562 1144.402344 348.023438 1139.179688 347.699219 C 1133.957031 347.375 1128.730469 347.183594 1123.5 347.121094 C 1118.269531 347.0625 1113.039062 347.132812 1107.8125 347.335938 C 1102.585938 347.539062 1097.363281 347.871094 1092.15625 348.335938 C 1086.945312 348.804688 1081.746094 349.398438 1076.566406 350.125 C 1071.386719 350.851562 1066.226562 351.710938 1061.089844 352.695312 C 1055.953125 353.683594 1050.84375 354.796875 1045.761719 356.042969 C 1040.679688 357.285156 1035.632812 358.65625 1030.621094 360.15625 C 1025.605469 361.652344 1020.636719 363.277344 1015.703125 365.023438 C 1010.773438 366.773438 1005.890625 368.644531 1001.054688 370.636719 C 996.21875 372.632812 991.433594 374.746094 986.703125 376.980469 C 981.972656 379.214844 977.304688 381.570312 972.691406 384.039062 C 968.078125 386.507812 963.53125 389.09375 959.050781 391.792969 C 958.417969 392.175781 957.75 392.496094 957.054688 392.757812 C 951.328125 428.226562 945.171875 463.625 938.589844 498.945312 C 952.640625 493.441406 967.066406 489.234375 981.871094 486.324219 C 996.675781 483.410156 1011.621094 481.84375 1026.707031 481.613281 C 1031.945312 474.191406 1037.484375 467 1043.332031 460.042969 C 1049.179688 453.089844 1055.308594 446.394531 1061.722656 439.960938 C 1068.136719 433.523438 1074.8125 427.375 1081.75 421.503906 C 1088.683594 415.636719 1095.855469 410.070312 1103.265625 404.8125 C 1110.671875 399.550781 1118.289062 394.613281 1126.117188 390 C 1133.945312 385.386719 1141.953125 381.109375 1150.140625 377.175781 C 1158.332031 373.242188 1166.671875 369.660156 1175.167969 366.433594 C 1183.660156 363.207031 1192.273438 360.34375 1201.011719 357.847656 Z M 776.757812 1094.429688 C 797.082031 1098.003906 802.664062 1066.433594 782.3125 1062.855469 C 761.960938 1059.277344 756.414062 1090.851562 776.757812 1094.429688 Z M 760.105469 861.984375 C 739.785156 858.410156 734.203125 889.980469 754.554688 893.558594 C 774.90625 897.136719 780.457031 865.5625 760.105469 861.984375 Z M 733.363281 667.410156 C 713.039062 663.835938 707.453125 695.40625 727.8125 698.984375 C 748.167969 702.5625 753.707031 670.988281 733.363281 667.410156 Z M 349.058594 934.800781 C 369.378906 938.375 374.96875 906.808594 354.609375 903.226562 C 334.25 899.648438 328.71875 931.226562 349.058594 934.800781 Z M 349.058594 934.800781 " fill-opacity="1" fill-rule="nonzero"/></g></g></g></g></svg>