<svg xmlns="http://www.w3.org/2000/svg" xmlns:xlink="http://www.w3.org/1999/xlink" width="2000" zoomAndPan="magnify" viewBox="0 0 1500 1499.999933" height="2000" preserveAspectRatio="xMidYMid meet" version="1.0"><defs><g/></defs><g fill="#000000" fill-opacity="1"><g transform="translate(323.75977, 806.99991)"><g><path d="M 93.03125 -100.21875 L 93.03125 -94.890625 L 24.046875 -94.890625 L 24.046875 -62.78125 L 79.34375 -62.78125 L 79.34375 -37.4375 L 24.046875 -37.4375 L 24.046875 0 L 18.71875 0 L 18.71875 -100.21875 Z M 93.03125 -100.21875 "/></g></g></g><g fill="#000000" fill-opacity="1"><g transform="translate(430.319717, 806.99991)"><g><path d="M 75.03125 -96.90625 C 80.78125 -94.21875 85.3125 -90.234375 88.625 -84.953125 C 91.9375 -79.679688 93.59375 -73.828125 93.59375 -67.390625 C 93.59375 -59.898438 91.3125 -53.203125 86.75 -47.296875 C 82.195312 -41.398438 76.367188 -37.488281 69.265625 -35.5625 L 94.75 0 L 88.421875 0 L 63.796875 -34.5625 L 59.1875 -34.421875 L 23.046875 -34.421875 L 23.046875 0 L 17.71875 0 L 17.71875 -100.21875 L 55.875 -100.21875 C 60.09375 -100.21875 63.710938 -99.953125 66.734375 -99.421875 C 69.765625 -98.898438 72.53125 -98.0625 75.03125 -96.90625 Z M 60.625 -39.75 C 65.613281 -39.75 70.21875 -40.992188 74.4375 -43.484375 C 78.664062 -45.984375 82.023438 -49.34375 84.515625 -53.5625 C 87.015625 -57.789062 88.265625 -62.398438 88.265625 -67.390625 C 88.265625 -72.960938 86.800781 -78.003906 83.875 -82.515625 C 80.945312 -87.023438 76.894531 -90.382812 71.71875 -92.59375 C 67.96875 -94.125 62.6875 -94.890625 55.875 -94.890625 L 23.046875 -94.890625 L 23.046875 -39.75 Z M 60.625 -39.75 "/></g></g></g><g fill="#000000" fill-opacity="1"><g transform="translate(536.879663, 806.99991)"><g><path d="M 12.8125 -100.21875 L 18.140625 -100.21875 L 18.140625 -38.296875 C 18.140625 -31.960938 19.722656 -26.109375 22.890625 -20.734375 C 26.054688 -15.359375 30.328125 -11.085938 35.703125 -7.921875 C 41.085938 -4.753906 46.945312 -3.171875 53.28125 -3.171875 C 59.613281 -3.171875 65.46875 -4.753906 70.84375 -7.921875 C 76.21875 -11.085938 80.488281 -15.359375 83.65625 -20.734375 C 86.832031 -26.109375 88.421875 -31.960938 88.421875 -38.296875 L 88.421875 -100.21875 L 93.75 -100.21875 L 93.75 -38.296875 C 93.75 -31.003906 91.921875 -24.257812 88.265625 -18.0625 C 84.617188 -11.875 79.695312 -6.957031 73.5 -3.3125 C 67.3125 0.332031 60.570312 2.15625 53.28125 2.15625 C 45.988281 2.15625 39.242188 0.332031 33.046875 -3.3125 C 26.859375 -6.957031 21.9375 -11.875 18.28125 -18.0625 C 14.632812 -24.257812 12.8125 -31.003906 12.8125 -38.296875 Z M 12.8125 -100.21875 "/></g></g></g><g fill="#000000" fill-opacity="1"><g transform="translate(643.439599, 806.99991)"><g><path d="M 85.828125 -100.21875 L 85.828125 -94.890625 L 55.875 -94.890625 L 55.875 -5.328125 L 85.828125 -5.328125 L 85.828125 0 L 20.875 0 L 20.875 -5.328125 L 50.6875 -5.328125 L 50.6875 -94.890625 L 20.875 -94.890625 L 20.875 -100.21875 Z M 85.828125 -100.21875 "/></g></g></g><g fill="#000000" fill-opacity="1"><g transform="translate(749.999557, 806.99991)"><g><path d="M 93.75 -100.21875 L 93.75 -94.890625 L 55.875 -94.890625 L 55.875 0 L 50.6875 0 L 50.6875 -94.890625 L 12.8125 -94.890625 L 12.8125 -100.21875 Z M 93.75 -100.21875 "/></g></g></g><g fill="#000000" fill-opacity="1"><g transform="translate(856.559514, 806.99991)"><g><path d="M 20.015625 -100.21875 L 94.75 -100.21875 L 94.75 -94.890625 L 25.34375 -94.890625 L 25.34375 -52.84375 L 81.5 -52.84375 L 81.5 -47.515625 L 25.34375 -47.515625 L 25.34375 0 L 20.015625 0 Z M 20.015625 -100.21875 "/></g></g></g><g fill="#000000" fill-opacity="1"><g transform="translate(963.119426, 806.99991)"><g><path d="M 12.8125 -100.21875 L 18.140625 -100.21875 L 18.140625 -38.296875 C 18.140625 -31.960938 19.722656 -26.109375 22.890625 -20.734375 C 26.054688 -15.359375 30.328125 -11.085938 35.703125 -7.921875 C 41.085938 -4.753906 46.945312 -3.171875 53.28125 -3.171875 C 59.613281 -3.171875 65.46875 -4.753906 70.84375 -7.921875 C 76.21875 -11.085938 80.488281 -15.359375 83.65625 -20.734375 C 86.832031 -26.109375 88.421875 -31.960938 88.421875 -38.296875 L 88.421875 -100.21875 L 93.75 -100.21875 L 93.75 -38.296875 C 93.75 -31.003906 91.921875 -24.257812 88.265625 -18.0625 C 84.617188 -11.875 79.695312 -6.957031 73.5 -3.3125 C 67.3125 0.332031 60.570312 2.15625 53.28125 2.15625 C 45.988281 2.15625 39.242188 0.332031 33.046875 -3.3125 C 26.859375 -6.957031 21.9375 -11.875 18.28125 -18.0625 C 14.632812 -24.257812 12.8125 -31.003906 12.8125 -38.296875 Z M 12.8125 -100.21875 "/></g></g></g><g fill="#000000" fill-opacity="1"><g transform="translate(1069.679384, 806.99991)"><g><path d="M 22.3125 0 L 22.3125 -100.21875 L 27.640625 -100.21875 L 27.640625 -5.328125 L 97.484375 -5.328125 L 97.484375 0 Z M 22.3125 0 "/></g></g></g></svg>